# xmcd
#
# Track frame offsets: 
#        150
#        20106
#        42879
#        63815
#        89791
#        113822
#        134281
#        153922
#        180346
#        200359
#        221092
#        242167
#        269153
#        288966
#
# Disc length: 4098 seconds
#
# Revision: 1
# Processed by: cddbd v1.5.2PL0 Copyright (c) Steve Scherf et al.
# Submitted via: ExactAudioCopy v1.1
#
DISCID=cf10000e
DTITLE=Tom Cochrane - Mad Mad World Cd1 (1991)
DYEAR=2016
DGENRE=Blues
TTITLE0=Life Is A Highway
TTITLE1=Mad Mad World
TTITLE2=No Regrets
TTITLE3=Sinking Like A Sunset
TTITLE4=Washed Away
TTITLE5=Everything Comes Around
TTITLE6=The Secret Is To Know When To Stop
TTITLE7=Brave And Crazy
TTITLE8=Bigger Man
TTITLE9=Friendly Advice
TTITLE10=Get Up Back
TTITLE11=Emotional Truth
TTITLE12=All The Kind's Men
TTITLE13=Love Is A Highway
EXTD=
EXTT0=
EXTT1=
EXTT2=
EXTT3=
EXTT4=
EXTT5=
EXTT6=
EXTT7=
EXTT8=
EXTT9=
EXTT10=
EXTT11=
EXTT12=
EXTT13=
PLAYORDER=
